<svg xmlns="http://www.w3.org/2000/svg" viewBox="0 0 511.2 513.4">
  <path fill="none" stroke="#000" stroke-miterlimit="10" d="M510.7 256a255.2 255.2 0 0 1-89 196.2 261.7 261.7 0 0 1-131.4 60.3c35.5-20.1 55.3-52.8 55.3-80.3 0-44.2-26.8-38.8-34.6-32.3v-44.1c17.2-18.1 24.1-41.9 18.5-63.2a55.3 55.3 0 0 0-18.5-28.9v-85.8l7.4 2.3c6.2-1.3 6.9-10.9 0-14.4l-3.8-1.2h-.3l-3.3-1c-13.9-4-28.9-6.6-46.7-3.9-19.7 2.9-37.5 11.6-51.1 27.4-.9 1.1-1.8 2.1-2.6 3.2l-.2.2-2.1 2.8-.8 1.1-1.3 2-1.1 1.6c-1 1.6-2 3.3-2.9 5-6.8 12.4-8.6 27.2-6.9 39.7 1.9 15 9.3 26.7 17.9 35.5V320a19.3 19.3 0 0 0-9.9-1.2c-12.7 1.6-22.9 9.6-20.8 26 1.8 13.2 13.1 30.2 36.6 36.8 6.1 13.3 16 25.2 26 30.7 0 0-29.5 5.2-52.3-12.1a190.7 190.7 0 0 1-13.6 14.8C126 466.9 76 481.7 34.3 489.1c0 0 75.8-59.3 75.8-138.8 0-59.1-1.5-203.3-1.5-203.3C80.4 120 38.7 158.9.9 197.4c7.3-35 39.7-124.6 143-173.2l41.5 46.5 70-70.2a258.6 258.6 0 0 1 197.9 96c5.9 1.4 26.2 3.6 55.5-24.3 0 0-25 100.7-95.7 107.5v133a31.1 31.1 0 0 0 30.3 32.2 27.4 27.4 0 0 0 9-1c32.4-7.4 58.3-87.9 58.3-87.9Z"/>
  <path fill="none" stroke="#000" stroke-miterlimit="10" d="M311 355.8c-13.2 13.9-32.5 24.3-56.8 27.5-13.9 1.8-25.5.8-35.1-1.8-23.5-6.6-34.8-23.6-36.6-36.8-2.1-16.4 8.1-24.4 20.8-26a19.3 19.3 0 0 1 9.9 1.2c9 3.4 15.6 12.7 16.8 22.2a36.1 36.1 0 0 1 .4 6.8c.1 3.8-1.3 7.6-.7 11.8 1.3 10 16.2 10.7 25.7 9.4 21.4-2.8 35.2-20.9 32.9-38.2s-15.3-21.7-20.7-23.7l-26.4-10.9a93 93 0 0 1-28-19.2c-8.6-8.8-16-20.5-17.9-35.5-1.7-12.5.1-27.3 6.9-39.7.9-1.7 1.9-3.4 2.9-5l1.1-1.6 1.3-2a10.5 10.5 0 0 1 .8-1.1l2.1-2.8.2-.2c.8-1.1 1.7-2.1 2.6-3.2 13.6-15.8 31.4-24.5 51.1-27.4 17.8-2.7 32.8-.1 46.7 3.9l3.3 1h.3l3.8 1.2c6.9 3.5 6.2 13.1 0 14.4l-7.4-2.3c-12.6-3.6-25.6-5.8-41.1-3.3-20.4 3.4-29.6 12.7-32.9 26.1-3.8 15.8 6.2 29.6 19.1 34.5l22.2 9.5c13.3 6 24.2 12 32.7 19a55.3 55.3 0 0 1 18.5 28.9c5.6 21.4-1.3 45.2-18.5 63.3Z"/>
</svg>
