<svg xmlns="http://www.w3.org/2000/svg" xml:space="preserve" viewBox="0 0 170.00001 32">
  <path fill="none" stroke="#000" stroke-width=".15" d="M94.591766.9970705V30.471679h4.359378V.9970705Zm-7.228516.6855469c-1.537453.00292-2.782256 1.2496563-2.785156 2.7871093 0 1.4939428 1.250837 2.7851568 2.785156 2.7851568 1.534319 0 2.78711-1.291213 2.78711-2.7851568-.0029-1.5374551-1.249655-2.7841893-2.78711-2.7871093zm64.76367 4.3203121c-.99125 0-1.79492.80368-1.79492 1.794922 0 .991244.80367 1.794922 1.79492 1.794922h12.30469L163.332 14.188477c-.0998-.0165-.19988-.03125-.30469-.03125h-15.40625c-.99124 0-1.79297.803678-1.79297 1.794922 0 .991959.80173 1.792968 1.79297 1.792968h14.85742l-.99804 4.167969-7.96875 5.160156-8.22071-5.277344c-.8319-.536893-1.94449-.294987-2.47851.539063-.53546.834051-.29498 1.94501.53906 2.480468l9.19727 5.904297c.29503.191648.63139.283203.96875.283203.34021 0 .67942-.0969.97656-.287109l9.54101-6.179688c.38617-.252656.66332-.642671.76954-1.089842l3.64648-15.2324225c.12777-.533305.003-1.095966-.33594-1.527344-.34022-.432098-.85838-.683594-1.4082-.683594zm-103.175779 3.75586c-2.745625 0-4.927328 1.0097795-6.259766 3.1093745v-2.583985H38.332v20.1875h4.359375V19.651367c0-4.118438 2.262151-5.814453 5.128907-5.814453 2.745629 0 4.521484 1.614953 4.521484 4.683594v11.951171h4.361328V18.077148c0-5.248989-3.229744-8.3183585-7.751953-8.3183585zm19.71875 0c-5.49125 0-10.054687 4.6029905-10.054688 10.6191395 0 5.975773 4.563438 10.619141 10.054688 10.619141 3.149395 0 5.532083-1.291666 7.066406-3.431641v2.90625h4.359375V10.282227h-4.359375v2.86914c-1.534323-2.099596-3.917011-3.3925775-7.066406-3.3925775Zm33.537109 0V22.155273c0 5.24899 3.2317 8.316406 7.75391 8.316406 2.74562 0 4.92537-1.009777 6.25781-3.109375v2.585938h4.35937V9.7587895h-4.35937V20.579101c0 4.11844-2.26216 5.814453-5.12891 5.814453-2.74563 0-4.52148-1.614953-4.52148-4.683593V9.7587895Zm29.75977 0c-4.11845 0-7.38868 2.3823095-7.38868 6.1777345 0 7.227455 10.86133 5.209193 10.86133 8.802734 0 1.615073-1.49356 2.259765-3.43164 2.259765-2.22074 0-3.83638-1.089292-4.48242-2.90625l-3.75391 2.179688c1.29206 2.907133 4.19863 4.724609 8.23633 4.724609 4.36069 0 7.87305-2.181066 7.87305-6.21875 0-7.469719-10.86133-5.247582-10.86133-8.921874 0-1.453566 1.37256-2.140625 2.94727-2.140625 1.65544 0 3.07008.726085 3.79687 2.30078l3.67383-2.058593c-1.41318-2.664871-4.15981-4.1992185-7.4707-4.1992185zm-46.783207.5253905v20.187499h4.361328V10.28418Zm-15.828125 3.632812c3.633917 0 6.380859 2.70589 6.380859 6.460937 0 3.755048-2.746942 6.458985-6.380859 6.458985s-6.380859-2.703938-6.380859-6.458985c0-3.755046 2.746942-6.460937 6.380859-6.460937z"/>
  <g fill="none" stroke="#000" stroke-miterlimit="10" stroke-width=".15000021">
    <path d="M33.32762904 15.95643678a15.90641184 15.90641184 0 0 1-5.5472988 12.22898904 16.31155164 16.31155164 0 0 1-8.19005688 3.75845076c2.2126866-1.25281692 3.44680476-3.29098176 3.44680476-5.00503476 0-2.75495064-1.67042256-2.41837296-2.15659032-2.01323316v-2.74871772c1.07206224-1.12815852 1.50213372-2.61159348 1.1530902-3.93920544a3.44680476 3.44680476 0 0 0-1.1530902-1.80131388v-5.34784536l.46123608.14335716c.38644104-.08102796.43007148-.67938828 0-.89754048l-.23685096-.07479504h-.01869876l-.20568636-.0623292c-.86637588-.2493168-1.80131388-.41137272-2.91077364-.24308388-1.22788524.18075468-2.337345.72301872-3.18502212 1.70782008-.05609628.06856212-.11219256.13089132-.16205592.19945344l-.01246584.01246584-.13089132.17452176-.04986336.06856212-.08102796.1246584-.06856212.09972672c-.0623292.09972672-.1246584.20568636-.18075468.311646-.42383856.77288208-.53603112 1.69535424-.43007148 2.47446924.11842548.934938.57966156 1.66418964 1.11569268 2.2126866v2.60536056a1.20295356 1.20295356 0 0 0-.61705908-.07479504c-.79158084.09972672-1.42733868.59836032-1.29644736 1.6205592.11219256.82274544.81651252 1.88234184 2.28124872 2.29371456.38020812.82897836.9972672 1.57069584 1.6205592 1.91350644 0 0-1.8387114.32411184-3.25981716-.75418332a11.88617844 11.88617844 0 0 1-.84767712.92247216C9.3495858 29.10166506 6.2331258 30.02413722 3.63399816 30.4853733c0 0 4.72455336-3.69612156 4.72455336-8.65129296 0-3.68365572-.0934938-12.67152636-.0934938-12.67152636-1.75768344-1.6828884-4.35681108.74171748-6.71285484 3.14139168.45500316-2.181522 2.47446924-7.76621832 8.9130756-10.79541744l2.5866618 2.8983078 4.363044-4.37550984a16.11833112 16.11833112 0 0 1 12.33494868 5.9836032c.36774228.08726088 1.63302504.22438512 3.4592706-1.51459956 0 0-1.55823 6.27655044-5.96490444 6.700389v8.2897836a1.93843812 1.93843812 0 0 0 1.88857476 2.00700024 1.70782008 1.70782008 0 0 0 .5609628-.0623292c2.01946608-.46123608 3.63379236-5.47873668 3.63379236-5.47873668z"/>
    <path d="M20.8804878 22.17689094c-.82274544.86637588-2.025699 1.51459956-3.54029856 1.714053-.86637588.11219256-1.5893946.04986336-2.18775492-.11219256-1.4647362-.41137272-2.16905616-1.47096912-2.28124872-2.29371456-.13089132-1.02219888.50486652-1.52083248 1.29644736-1.6205592a1.20295356 1.20295356 0 0 1 .61705908.07479504c.5609628.21191928.97233552.79158084 1.04713056 1.38370824a2.25008412 2.25008412 0 0 1 .02493168.42383856c.00623292.23685096-.08102796.47370192-.04363044.73548456.08102796.623292 1.00973304.66692244 1.60186044.58589448 1.33384488-.17452176 2.19398784-1.30268028 2.05063068-2.38097544-.14335716-1.07829516-.95363676-1.35254364-1.29021444-1.47720204l-1.64549088-.67938828a5.7966156 5.7966156 0 0 1-1.7452176-1.19672064c-.53603112-.54849696-.9972672-1.2777486-1.11569268-2.2126866-.10595964-.779115.00623292-1.70158716.43007148-2.47446924.05609628-.10595964.11842548-.21191928.18075468-.311646l.06856212-.09972672.08102796-.1246584a.6544566.6544566 0 0 1 .04986336-.06856212l.13089132-.17452176.01246584-.01246584c.04986336-.06856212.10595964-.13089132.16205592-.19945344.84767712-.98480136 1.95713688-1.5270654 3.18502212-1.70782008 1.10945976-.16828884 2.04439776-.00623292 2.91077364.24308388l.20568636.0623292h.01869876l.23685096.07479504c.43007148.2181522.38644104.81651252 0 .89754048l-.46123608-.14335716c-.78534792-.22438512-1.59562752-.36150936-2.56173012-.20568636-1.27151568.21191928-1.84494432.79158084-2.05063068 1.62679212-.23685096.98480136.38644104 1.84494432 1.19048772 2.1503574l1.38370824.5921274c.82897836.3739752 1.50836664.7479504 2.03816484 1.1842548a3.44680476 3.44680476 0 0 1 1.1530902 1.80131388c.34904352 1.33384488-.08102796 2.81727984-1.1530902 3.94543836z"/>
  </g>
</svg>
