<svg xmlns="http://www.w3.org/2000/svg" xml:space="preserve" viewBox="0 0 200.00001 32">
  <path fill="none" stroke="#000" stroke-width=".15" d="M187.93824 15.858681c0 3.674293 10.86137 1.453566 10.86137 8.923283 0 4.037685-3.51279 6.218035-7.87349 6.218035-4.03768 0-6.94481-1.816958-8.23687-4.724091l3.75504-2.180351c.64603 1.816959 2.26111 2.907134 4.48183 2.907134 1.93809 0 3.43204-.64603 3.43204-2.261103 0-3.59354-10.86138-1.574698-10.86138-8.802154 0-3.795424 3.27053-6.1776574 7.38896-6.1776574 3.31091 0 6.05654 1.5343194 7.46972 4.1991914l-3.67428 2.05922c-.72679-1.574697-2.13998-2.301481-3.79544-2.301481-1.57469 0-2.9475.686407-2.9475 2.139974zm-18.61373 0c0 3.674293 10.86137 1.453566 10.86137 8.923283 0 4.037685-3.51279 6.218035-7.87348 6.218035-4.03769 0-6.94482-1.816958-8.23688-4.724091l3.75505-2.180351c.64603 1.816959 2.26111 2.907134 4.48183 2.907134 1.93808 0 3.43203-.64603 3.43203-2.261103 0-3.59354-10.86137-1.574698-10.86137-8.802154 0-3.795424 3.27052-6.1776574 7.38896-6.1776574 3.3109 0 6.05653 1.5343194 7.46972 4.1991914l-3.6743 2.05922c-.72678-1.574697-2.13996-2.301481-3.79542-2.301481-1.5747 0-2.94751.686407-2.94751 2.139974zM153.05264 31c-6.0969 0-10.65949-4.643337-10.65949-10.619111 0-6.016151 4.56259-10.6191124 10.65949-10.6191124 3.95693 0 7.38896 2.0592194 9.00404 5.2086144l-3.75505 2.18035c-.88829-1.897712-2.86675-3.109018-5.28937-3.109018-3.55316 0-6.25841 2.705249-6.25841 6.339166 0 3.633916 2.70525 6.339165 6.25841 6.339165 2.42262 0 4.40108-1.251683 5.37013-3.109017l3.75504 2.139973C160.4416 28.940779 157.00957 31 153.05264 31Zm-24.0901-15.141319c0 3.674293 10.86137 1.453566 10.86137 8.923285 0 4.037684-3.51279 6.218034-7.87348 6.218034-4.0377 0-6.94483-1.816958-8.23689-4.724091l3.75505-2.18035c.64604 1.816958 2.2611 2.907133 4.48184 2.907133 1.93808 0 3.43202-.646029 3.43202-2.261103 0-3.59354-10.86137-1.574698-10.86137-8.802154 0-3.795424 3.27053-6.1776584 7.38897-6.1776584 3.31089 0 6.05653 1.5343214 7.46971 4.1991924l-3.67429 2.059219c-.72679-1.574696-2.13998-2.30148-3.79542-2.30148-1.5747 0-2.94751.686407-2.94751 2.139973zm-19.06 14.61642c-4.52221 0-7.75236-3.068641-7.75236-8.317631V9.7617766h4.3607V21.713324c0 3.06864 1.77658 4.683715 4.52221 4.683715 2.86675 0 5.12786-1.695828 5.12786-5.814267V9.7617766h4.3607V29.950203h-4.3607v-2.58412c-1.33244 2.099597-3.51279 3.109018-6.25841 3.109018zm-15.36871 0V1.0000001h4.360696V30.475101Zm-9.407808 0V10.286675h4.360701v20.188426zm2.18035-23.2166891c-1.534319 0-2.786-1.2920595-2.786-2.7860028a2.7913154 2.7913154 0 0 1 2.786-2.7860026 2.7913154 2.7913154 0 0 1 2.786005 2.7860026c0 1.4939433-1.251686 2.7860028-2.786005 2.7860028zM68.612505 9.7607967c-5.49125 0-10.054782 4.6031113-10.054782 10.6192613 0 5.975773 4.563532 10.61926 10.054782 10.61926 3.149395 0 5.532043-1.29048 7.066366-3.430454v2.905406h4.360178V10.285846h-4.360178v2.868051C74.144548 11.0543 71.7619 9.7607967 68.612505 9.7607967Zm.684845 4.1588823c3.633917 0 6.381521 2.705332 6.381521 6.460379s-2.747604 6.460378-6.381521 6.460378c-3.633917 0-6.379441-2.705331-6.379441-6.460378 0-3.755046 2.745524-6.460379 6.379441-6.460379zM48.893113 9.7617766c4.522209 0 7.752356 3.0686404 7.752356 8.3176304V30.4751h-4.3607V18.523552c0-3.068641-1.776581-4.683714-4.52221-4.683714-2.866756 0-5.127859 1.695828-5.127859 5.814266V30.4751H38.274V10.286675h4.3607v2.584119c1.332438-2.099596 3.512788-3.1090174 6.258413-3.1090174z" clip-rule="evenodd"/>
  <g fill="none" stroke="#000" stroke-miterlimit="10" stroke-width=".15000021">
    <path d="M33.32762904 15.95643678a15.90641184 15.90641184 0 0 1-5.5472988 12.22898904 16.31155164 16.31155164 0 0 1-8.19005688 3.75845076c2.2126866-1.25281692 3.44680476-3.29098176 3.44680476-5.00503476 0-2.75495064-1.67042256-2.41837296-2.15659032-2.01323316v-2.74871772c1.07206224-1.12815852 1.50213372-2.61159348 1.1530902-3.93920544a3.44680476 3.44680476 0 0 0-1.1530902-1.80131388v-5.34784536l.46123608.14335716c.38644104-.08102796.43007148-.67938828 0-.89754048l-.23685096-.07479504h-.01869876l-.20568636-.0623292c-.86637588-.2493168-1.80131388-.41137272-2.91077364-.24308388-1.22788524.18075468-2.337345.72301872-3.18502212 1.70782008-.05609628.06856212-.11219256.13089132-.16205592.19945344l-.01246584.01246584-.13089132.17452176-.04986336.06856212-.08102796.1246584-.06856212.09972672c-.0623292.09972672-.1246584.20568636-.18075468.311646-.42383856.77288208-.53603112 1.69535424-.43007148 2.47446924.11842548.934938.57966156 1.66418964 1.11569268 2.2126866v2.60536056a1.20295356 1.20295356 0 0 0-.61705908-.07479504c-.79158084.09972672-1.42733868.59836032-1.29644736 1.6205592.11219256.82274544.81651252 1.88234184 2.28124872 2.29371456.38020812.82897836.9972672 1.57069584 1.6205592 1.91350644 0 0-1.8387114.32411184-3.25981716-.75418332a11.88617844 11.88617844 0 0 1-.84767712.92247216C9.3495858 29.10166506 6.2331258 30.02413722 3.63399816 30.4853733c0 0 4.72455336-3.69612156 4.72455336-8.65129296 0-3.68365572-.0934938-12.67152636-.0934938-12.67152636-1.75768344-1.6828884-4.35681108.74171748-6.71285484 3.14139168.45500316-2.181522 2.47446924-7.76621832 8.9130756-10.79541744l2.5866618 2.8983078 4.363044-4.37550984a16.11833112 16.11833112 0 0 1 12.33494868 5.9836032c.36774228.08726088 1.63302504.22438512 3.4592706-1.51459956 0 0-1.55823 6.27655044-5.96490444 6.700389v8.2897836a1.93843812 1.93843812 0 0 0 1.88857476 2.00700024 1.70782008 1.70782008 0 0 0 .5609628-.0623292c2.01946608-.46123608 3.63379236-5.47873668 3.63379236-5.47873668z"/>
    <path d="M20.8804878 22.17689094c-.82274544.86637588-2.025699 1.51459956-3.54029856 1.714053-.86637588.11219256-1.5893946.04986336-2.18775492-.11219256-1.4647362-.41137272-2.16905616-1.47096912-2.28124872-2.29371456-.13089132-1.02219888.50486652-1.52083248 1.29644736-1.6205592a1.20295356 1.20295356 0 0 1 .61705908.07479504c.5609628.21191928.97233552.79158084 1.04713056 1.38370824a2.25008412 2.25008412 0 0 1 .02493168.42383856c.00623292.23685096-.08102796.47370192-.04363044.73548456.08102796.623292 1.00973304.66692244 1.60186044.58589448 1.33384488-.17452176 2.19398784-1.30268028 2.05063068-2.38097544-.14335716-1.07829516-.95363676-1.35254364-1.29021444-1.47720204l-1.64549088-.67938828a5.7966156 5.7966156 0 0 1-1.7452176-1.19672064c-.53603112-.54849696-.9972672-1.2777486-1.11569268-2.2126866-.10595964-.779115.00623292-1.70158716.43007148-2.47446924.05609628-.10595964.11842548-.21191928.18075468-.311646l.06856212-.09972672.08102796-.1246584a.6544566.6544566 0 0 1 .04986336-.06856212l.13089132-.17452176.01246584-.01246584c.04986336-.06856212.10595964-.13089132.16205592-.19945344.84767712-.98480136 1.95713688-1.5270654 3.18502212-1.70782008 1.10945976-.16828884 2.04439776-.00623292 2.91077364.24308388l.20568636.0623292h.01869876l.23685096.07479504c.43007148.2181522.38644104.81651252 0 .89754048l-.46123608-.14335716c-.78534792-.22438512-1.59562752-.36150936-2.56173012-.20568636-1.27151568.21191928-1.84494432.79158084-2.05063068 1.62679212-.23685096.98480136.38644104 1.84494432 1.19048772 2.1503574l1.38370824.5921274c.82897836.3739752 1.50836664.7479504 2.03816484 1.1842548a3.44680476 3.44680476 0 0 1 1.1530902 1.80131388c.34904352 1.33384488-.08102796 2.81727984-1.1530902 3.94543836z"/>
  </g>
</svg>
