<svg xmlns="http://www.w3.org/2000/svg" xml:space="preserve" viewBox="0 0 170.00001 32">
  <path d="M94.091766.9970705V30.471679h4.359378V.9970705Zm-7.228516.6855469c-1.537453.00292-2.782256 1.2496563-2.785156 2.7871093 0 1.4939428 1.250837 2.7851568 2.785156 2.7851568 1.534319 0 2.78711-1.291213 2.78711-2.7851568-.0029-1.5374551-1.249655-2.7841893-2.78711-2.7871093zm64.76367 4.3203121c-.99125 0-1.79492.80368-1.79492 1.794922 0 .991244.80367 1.794922 1.79492 1.794922h12.30469L162.832 14.188477c-.0998-.0165-.19988-.03125-.30469-.03125h-15.40625c-.99124 0-1.79297.803678-1.79297 1.794922 0 .991959.80173 1.792968 1.79297 1.792968h14.85742l-.99804 4.167969-7.96875 5.160156-8.22071-5.277344c-.8319-.536893-1.94449-.294987-2.47851.539063-.53546.834051-.29498 1.94501.53906 2.480468l9.19727 5.904297c.29503.191648.63139.283203.96875.283203.34021 0 .67942-.0969.97656-.287109l9.54101-6.179688c.38617-.252656.66332-.642671.76954-1.089842l3.64648-15.2324225c.12777-.533305.003-1.095966-.33594-1.527344-.34022-.432098-.85838-.683594-1.4082-.683594zm-103.175779 3.75586c-2.745625 0-4.927328 1.0097795-6.259766 3.1093745v-2.583985H37.832v20.1875h4.359375V19.651367c0-4.118438 2.262151-5.814453 5.128907-5.814453 2.745629 0 4.521484 1.614953 4.521484 4.683594v11.951171h4.361328V18.077148c0-5.248989-3.229744-8.3183585-7.751953-8.3183585zm19.71875 0c-5.49125 0-10.054687 4.6029905-10.054688 10.6191395 0 5.975773 4.563438 10.619141 10.054688 10.619141 3.149395 0 5.532083-1.291666 7.066406-3.431641v2.90625h4.359375V10.282227h-4.359375v2.86914c-1.534323-2.099596-3.917011-3.3925775-7.066406-3.3925775Zm33.537109 0V22.155273c0 5.24899 3.2317 8.316406 7.75391 8.316406 2.74562 0 4.92537-1.009777 6.25781-3.109375v2.585938h4.35937V9.7587895h-4.35937V20.579101c0 4.11844-2.26216 5.814453-5.12891 5.814453-2.74563 0-4.52148-1.614953-4.52148-4.683593V9.7587895Zm29.75977 0c-4.11845 0-7.38868 2.3823095-7.38868 6.1777345 0 7.227455 10.86133 5.209193 10.86133 8.802734 0 1.615073-1.49356 2.259765-3.43164 2.259765-2.22074 0-3.83638-1.089292-4.48242-2.90625l-3.75391 2.179688c1.29206 2.907133 4.19863 4.724609 8.23633 4.724609 4.36069 0 7.87305-2.181066 7.87305-6.21875 0-7.469719-10.86133-5.247582-10.86133-8.921874 0-1.453566 1.37256-2.140625 2.94727-2.140625 1.65544 0 3.07008.726085 3.79687 2.30078l3.67383-2.058593c-1.41318-2.664871-4.15981-4.1992185-7.4707-4.1992185zm-46.783207.5253905v20.187499h4.361328V10.28418Zm-15.828125 3.632812c3.633917 0 6.380859 2.70589 6.380859 6.460937 0 3.755048-2.746942 6.458985-6.380859 6.458985s-6.380859-2.703938-6.380859-6.458985c0-3.755046 2.746942-6.460937 6.380859-6.460937zM32.8625 15.96875A15.95 15.95 0 0 1 27.3 28.23125 16.35625 16.35625 0 0 1 19.0875 32c2.21875-1.25625 3.45625-3.3 3.45625-5.01875 0-2.7625-1.675-2.425-2.1625-2.01875v-2.75625c1.075-1.13125 1.50625-2.61875 1.15625-3.95A3.45625 3.45625 0 0 0 20.38125 16.45v-5.3625l.4625.14375c.3875-.08125.43125-.68125 0-.9l-.2375-.075h-.01875l-.20625-.0625c-.86875-.25-1.80625-.4125-2.91875-.24375-1.23125.18125-2.34375.725-3.19375 1.7125-.05625.06875-.1125.13125-.1625.2l-.0125.0125-.13125.175-.05.06875-.08125.125-.06875.1c-.0625.1-.125.20625-.18125.3125-.425.775-.5375 1.7-.43125 2.48125.11875.9375.58125 1.66875 1.11875 2.21875v2.6125a1.20625 1.20625 0 0 0-.61875-.075c-.79375.1-1.43125.6-1.3 1.625.1125.825.81875 1.8875 2.2875 2.3.38125.83125 1 1.575 1.625 1.91875 0 0-1.84375.325-3.26875-.75625a11.91875 11.91875 0 0 1-.85.925c-3.325 3.24375-6.45 4.16875-9.05625 4.63125 0 0 4.7375-3.70625 4.7375-8.675 0-3.69375-.09375-12.70625-.09375-12.70625C5.96875 7.46875 3.3625 9.9 1 12.30625c.45625-2.1875 2.48125-7.7875 8.9375-10.825l2.59375 2.90625L16.90625 0A16.1625 16.1625 0 0 1 29.275 6c.36875.0875 1.6375.225 3.46875-1.51875 0 0-1.5625 6.29375-5.98125 6.71875v8.3125a1.94375 1.94375 0 0 0 1.89375 2.0125 1.7125 1.7125 0 0 0 .5625-.0625c2.025-.4625 3.64375-5.49375 3.64375-5.49375Z"/>
  <path stroke="#fff" stroke-miterlimit="10" stroke-width=".0625" d="M20.38125 22.20625c-.825.86875-2.03125 1.51875-3.55 1.71875-.86875.1125-1.59375.05-2.19375-.1125-1.46875-.4125-2.175-1.475-2.2875-2.3-.13125-1.025.50625-1.525 1.3-1.625a1.20625 1.20625 0 0 1 .61875.075c.5625.2125.975.79375 1.05 1.3875a2.25625 2.25625 0 0 1 .025.425c.00625.2375-.08125.475-.04375.7375.08125.625 1.0125.66875 1.60625.5875 1.3375-.175 2.2-1.30625 2.05625-2.3875-.14375-1.08125-.95625-1.35625-1.29375-1.48125l-1.65-.68125a5.8125 5.8125 0 0 1-1.75-1.2c-.5375-.55-1-1.28125-1.11875-2.21875-.10625-.78125.00625-1.70625.43125-2.48125.05625-.10625.11875-.2125.18125-.3125l.06875-.1.08125-.125a.65625.65625 0 0 1 .05-.06875l.13125-.175.0125-.0125c.05-.06875.10625-.13125.1625-.2.85-.9875 1.9625-1.53125 3.19375-1.7125 1.1125-.16875 2.05-.00625 2.91875.24375l.20625.0625h.01875l.2375.075c.43125.21875.3875.81875 0 .9l-.4625-.14375c-.7875-.225-1.6-.3625-2.56875-.20625-1.275.2125-1.85.79375-2.05625 1.63125-.2375.9875.3875 1.85 1.19375 2.15625l1.3875.59375c.83125.375 1.5125.75 2.04375 1.1875A3.45625 3.45625 0 0 1 21.5375 18.25c.35 1.3375-.08125 2.825-1.15625 3.95625z"/>
</svg>
