<svg xmlns="http://www.w3.org/2000/svg" xml:space="preserve" viewBox="0 0 200.00001 32">
  <path d="M187.63824 15.858681c0 3.674293 10.86137 1.453566 10.86137 8.923283 0 4.037685-3.51279 6.218035-7.87349 6.218035-4.03768 0-6.94481-1.816958-8.23687-4.724091l3.75504-2.180351c.64603 1.816959 2.26111 2.907134 4.48183 2.907134 1.93809 0 3.43204-.64603 3.43204-2.261103 0-3.59354-10.86138-1.574698-10.86138-8.802154 0-3.795424 3.27053-6.1776574 7.38896-6.1776574 3.31091 0 6.05654 1.5343194 7.46972 4.1991914l-3.67428 2.05922c-.72679-1.574697-2.13998-2.301481-3.79544-2.301481-1.57469 0-2.9475.686407-2.9475 2.139974zm-18.61373 0c0 3.674293 10.86137 1.453566 10.86137 8.923283 0 4.037685-3.51279 6.218035-7.87348 6.218035-4.03769 0-6.94482-1.816958-8.23688-4.724091l3.75505-2.180351c.64603 1.816959 2.26111 2.907134 4.48183 2.907134 1.93808 0 3.43203-.64603 3.43203-2.261103 0-3.59354-10.86137-1.574698-10.86137-8.802154 0-3.795424 3.27052-6.1776574 7.38896-6.1776574 3.3109 0 6.05653 1.5343194 7.46972 4.1991914l-3.6743 2.05922c-.72678-1.574697-2.13996-2.301481-3.79542-2.301481-1.5747 0-2.94751.686407-2.94751 2.139974zM152.75264 31c-6.0969 0-10.65949-4.643337-10.65949-10.619111 0-6.016151 4.56259-10.6191124 10.65949-10.6191124 3.95693 0 7.38896 2.0592194 9.00404 5.2086144l-3.75505 2.18035c-.88829-1.897712-2.86675-3.109018-5.28937-3.109018-3.55316 0-6.25841 2.705249-6.25841 6.339166 0 3.633916 2.70525 6.339165 6.25841 6.339165 2.42262 0 4.40108-1.251683 5.37013-3.109017l3.75504 2.139973C160.1416 28.940779 156.70957 31 152.75264 31Zm-24.0901-15.141319c0 3.674293 10.86137 1.453566 10.86137 8.923285 0 4.037684-3.51279 6.218034-7.87348 6.218034-4.0377 0-6.94483-1.816958-8.23689-4.724091l3.75505-2.18035c.64604 1.816958 2.2611 2.907133 4.48184 2.907133 1.93808 0 3.43202-.646029 3.43202-2.261103 0-3.59354-10.86137-1.574698-10.86137-8.802154 0-3.795424 3.27053-6.1776584 7.38897-6.1776584 3.31089 0 6.05653 1.5343214 7.46971 4.1991924l-3.67429 2.059219c-.72679-1.574696-2.13998-2.30148-3.79542-2.30148-1.5747 0-2.94751.686407-2.94751 2.139973zm-19.06 14.61642c-4.52221 0-7.75236-3.068641-7.75236-8.317631V9.7617766h4.3607V21.713324c0 3.06864 1.77658 4.683715 4.52221 4.683715 2.86675 0 5.12786-1.695828 5.12786-5.814267V9.7617766h4.3607V29.950203h-4.3607v-2.58412c-1.33244 2.099597-3.51279 3.109018-6.25841 3.109018zm-15.36871 0V1.0000001h4.360696V30.475101Zm-9.407808 0V10.286675h4.360701v20.188426zm2.18035-23.2166891c-1.534319 0-2.786-1.2920595-2.786-2.7860028a2.7913154 2.7913154 0 0 1 2.786-2.7860026 2.7913154 2.7913154 0 0 1 2.786005 2.7860026c0 1.4939433-1.251686 2.7860028-2.786005 2.7860028zM68.312505 9.7607967c-5.49125 0-10.054782 4.6031113-10.054782 10.6192613 0 5.975773 4.563532 10.61926 10.054782 10.61926 3.149395 0 5.532043-1.29048 7.066366-3.430454v2.905406h4.360178V10.285846h-4.360178v2.868051C73.844548 11.0543 71.4619 9.7607967 68.312505 9.7607967Zm.684845 4.1588823c3.633917 0 6.381521 2.705332 6.381521 6.460379s-2.747604 6.460378-6.381521 6.460378c-3.633917 0-6.379441-2.705331-6.379441-6.460378 0-3.755046 2.745524-6.460379 6.379441-6.460379zM48.593113 9.7617766c4.522209 0 7.752356 3.0686404 7.752356 8.3176304V30.4751h-4.3607V18.523552c0-3.068641-1.776581-4.683714-4.52221-4.683714-2.866756 0-5.127859 1.695828-5.127859 5.814266V30.4751H37.974V10.286675h4.3607v2.584119c1.332438-2.099596 3.512788-3.1090174 6.258413-3.1090174z" clip-rule="evenodd"/>
  <path d="M32.8625 15.96875A15.95 15.95 0 0 1 27.3 28.23125 16.35625 16.35625 0 0 1 19.0875 32c2.21875-1.25625 3.45625-3.3 3.45625-5.01875 0-2.7625-1.675-2.425-2.1625-2.01875v-2.75625c1.075-1.13125 1.50625-2.61875 1.15625-3.95A3.45625 3.45625 0 0 0 20.38125 16.45v-5.3625l.4625.14375c.3875-.08125.43125-.68125 0-.9l-.2375-.075h-.01875l-.20625-.0625c-.86875-.25-1.80625-.4125-2.91875-.24375-1.23125.18125-2.34375.725-3.19375 1.7125-.05625.06875-.1125.13125-.1625.2l-.0125.0125-.13125.175-.05.06875-.08125.125-.06875.1c-.0625.1-.125.20625-.18125.3125-.425.775-.5375 1.7-.43125 2.48125.11875.9375.58125 1.66875 1.11875 2.21875v2.6125a1.20625 1.20625 0 0 0-.61875-.075c-.79375.1-1.43125.6-1.3 1.625.1125.825.81875 1.8875 2.2875 2.3.38125.83125 1 1.575 1.625 1.91875 0 0-1.84375.325-3.26875-.75625a11.91875 11.91875 0 0 1-.85.925c-3.325 3.24375-6.45 4.16875-9.05625 4.63125 0 0 4.7375-3.70625 4.7375-8.675 0-3.69375-.09375-12.70625-.09375-12.70625C5.96875 7.46875 3.3625 9.9 1 12.30625c.45625-2.1875 2.48125-7.7875 8.9375-10.825l2.59375 2.90625L16.90625 0A16.1625 16.1625 0 0 1 29.275 6c.36875.0875 1.6375.225 3.46875-1.51875 0 0-1.5625 6.29375-5.98125 6.71875v8.3125a1.94375 1.94375 0 0 0 1.89375 2.0125 1.7125 1.7125 0 0 0 .5625-.0625c2.025-.4625 3.64375-5.49375 3.64375-5.49375Z"/>
  <path stroke="#fff" stroke-miterlimit="10" stroke-width=".0625" d="M20.38125 22.20625c-.825.86875-2.03125 1.51875-3.55 1.71875-.86875.1125-1.59375.05-2.19375-.1125-1.46875-.4125-2.175-1.475-2.2875-2.3-.13125-1.025.50625-1.525 1.3-1.625a1.20625 1.20625 0 0 1 .61875.075c.5625.2125.975.79375 1.05 1.3875a2.25625 2.25625 0 0 1 .025.425c.00625.2375-.08125.475-.04375.7375.08125.625 1.0125.66875 1.60625.5875 1.3375-.175 2.2-1.30625 2.05625-2.3875-.14375-1.08125-.95625-1.35625-1.29375-1.48125l-1.65-.68125a5.8125 5.8125 0 0 1-1.75-1.2c-.5375-.55-1-1.28125-1.11875-2.21875-.10625-.78125.00625-1.70625.43125-2.48125.05625-.10625.11875-.2125.18125-.3125l.06875-.1.08125-.125a.65625.65625 0 0 1 .05-.06875l.13125-.175.0125-.0125c.05-.06875.10625-.13125.1625-.2.85-.9875 1.9625-1.53125 3.19375-1.7125 1.1125-.16875 2.05-.00625 2.91875.24375l.20625.0625h.01875l.2375.075c.43125.21875.3875.81875 0 .9l-.4625-.14375c-.7875-.225-1.6-.3625-2.56875-.20625-1.275.2125-1.85.79375-2.05625 1.63125-.2375.9875.3875 1.85 1.19375 2.15625l1.3875.59375c.83125.375 1.5125.75 2.04375 1.1875A3.45625 3.45625 0 0 1 21.5375 18.25c.35 1.3375-.08125 2.825-1.15625 3.95625z"/>
</svg>
