<svg xmlns="http://www.w3.org/2000/svg" xmlns:xlink="http://www.w3.org/1999/xlink" xml:space="preserve" viewBox="0 0 200.00001 32">
  <defs>
    <linearGradient id="a" x1="210.64" x2="314.54001" y1="153.41" y2="153.41" gradientUnits="userSpaceOnUse">
      <stop offset="0" stop-color="#4cbbeb"/>
      <stop offset="1" stop-color="#162f48"/>
    </linearGradient>
    <linearGradient xlink:href="#a" id="c" x1="182.42999" x2="331.62" y1="270.85999" y2="270.85999"/>
    <linearGradient id="d" x1="1.0700001" x2="510.92999" y1="256" y2="256" gradientUnits="userSpaceOnUse">
      <stop offset="0" stop-color="#10182b"/>
      <stop offset="1" stop-color="#4cbbeb"/>
    </linearGradient>
    <linearGradient xlink:href="#a" id="b" x1="210.64" x2="314.54001" y1="153.41" y2="153.41" gradientUnits="userSpaceOnUse"/>
  </defs>
  <path d="M187.63824 15.858681c0 3.674293 10.86137 1.453566 10.86137 8.923283 0 4.037685-3.51279 6.218035-7.87349 6.218035-4.03768 0-6.94481-1.816958-8.23687-4.724091l3.75504-2.180351c.64603 1.816959 2.26111 2.907134 4.48183 2.907134 1.93809 0 3.43204-.64603 3.43204-2.261103 0-3.59354-10.86138-1.574698-10.86138-8.802154 0-3.795424 3.27053-6.1776574 7.38896-6.1776574 3.31091 0 6.05654 1.5343194 7.46972 4.1991914l-3.67428 2.05922c-.72679-1.574697-2.13998-2.301481-3.79544-2.301481-1.57469 0-2.9475.686407-2.9475 2.139974zm-18.61373 0c0 3.674293 10.86137 1.453566 10.86137 8.923283 0 4.037685-3.51279 6.218035-7.87348 6.218035-4.03769 0-6.94482-1.816958-8.23688-4.724091l3.75505-2.180351c.64603 1.816959 2.26111 2.907134 4.48183 2.907134 1.93808 0 3.43203-.64603 3.43203-2.261103 0-3.59354-10.86137-1.574698-10.86137-8.802154 0-3.795424 3.27052-6.1776574 7.38896-6.1776574 3.3109 0 6.05653 1.5343194 7.46972 4.1991914l-3.6743 2.05922c-.72678-1.574697-2.13996-2.301481-3.79542-2.301481-1.5747 0-2.94751.686407-2.94751 2.139974zM152.75264 31c-6.0969 0-10.65949-4.643337-10.65949-10.619111 0-6.016151 4.56259-10.6191125 10.65949-10.6191125 3.95693 0 7.38896 2.0592195 9.00404 5.2086145l-3.75505 2.18035c-.88829-1.897712-2.86675-3.109018-5.28937-3.109018-3.55316 0-6.25841 2.705249-6.25841 6.339166 0 3.633916 2.70525 6.339165 6.25841 6.339165 2.42262 0 4.40108-1.251683 5.37013-3.109017l3.75504 2.139973C160.1416 28.940779 156.70957 31 152.75264 31Zm-24.0901-15.141319c0 3.674293 10.86137 1.453566 10.86137 8.923285 0 4.037684-3.51279 6.218034-7.87348 6.218034-4.0377 0-6.94483-1.816958-8.23689-4.724091l3.75505-2.18035c.64604 1.816958 2.2611 2.907133 4.48184 2.907133 1.93808 0 3.43202-.646029 3.43202-2.261103 0-3.59354-10.86137-1.574698-10.86137-8.802154 0-3.795424 3.27053-6.1776585 7.38897-6.1776585 3.31089 0 6.05653 1.5343215 7.46971 4.1991925l-3.67429 2.059219c-.72679-1.574696-2.13998-2.30148-3.79542-2.30148-1.5747 0-2.94751.686407-2.94751 2.139973zm-19.06 14.61642c-4.52221 0-7.75236-3.068641-7.75236-8.317631V9.7617765h4.3607V21.713324c0 3.06864 1.77658 4.683715 4.52221 4.683715 2.86675 0 5.12786-1.695828 5.12786-5.814267V9.7617765h4.3607V29.950203h-4.3607v-2.58412c-1.33244 2.099597-3.51279 3.109018-6.25841 3.109018zm-15.36871 0V1h4.360696v29.475101zm-9.407808 0V10.286675h4.360701v20.188426zm2.18035-23.2166891c-1.534319 0-2.786-1.2920595-2.786-2.7860028a2.7913154 2.7913154 0 0 1 2.786-2.7860026 2.7913154 2.7913154 0 0 1 2.786005 2.7860026c0 1.4939433-1.251686 2.7860028-2.786005 2.7860028zM68.312505 9.7607967c-5.49125 0-10.054782 4.6031113-10.054782 10.6192613 0 5.975773 4.563532 10.61926 10.054782 10.61926 3.149395 0 5.532043-1.29048 7.066366-3.430454v2.905406h4.360178V10.285846h-4.360178v2.868051C73.844548 11.0543 71.4619 9.7607967 68.312505 9.7607967Zm.684845 4.1588823c3.633917 0 6.381521 2.705332 6.381521 6.460379s-2.747604 6.460378-6.381521 6.460378c-3.633917 0-6.379441-2.705331-6.379441-6.460378 0-3.755046 2.745524-6.460379 6.379441-6.460379zM48.593113 9.7617765c4.522209 0 7.752356 3.0686405 7.752356 8.3176305V30.4751h-4.3607V18.523552c0-3.068641-1.776581-4.683714-4.52221-4.683714-2.866756 0-5.127859 1.695828-5.127859 5.814266V30.4751H37.974V10.286675h4.3607v2.584119c1.332438-2.099596 3.512788-3.1090174 6.258413-3.1090175z" clip-rule="evenodd"/>
  <path fill="url(#b)" d="M210.6 190.5v-40s73.3-72.1 103.9-7v21s-59.6-22.4-103.9 26z" transform="translate(.93125) scale(.0625)"/>
  <path fill="url(#c)" d="M311.2 355.3c-13.2 13.9-32.5 24.3-56.8 27.5-13.9 1.8-25.5.8-35.1-1.8-23.5-6.6-34.8-23.6-36.6-36.8-2.1-16.4 8.1-24.4 20.8-26a19.3 19.3 0 0 1 9.9 1.2c9 3.4 15.6 12.7 16.8 22.2a36.1 36.1 0 0 1 .4 6.8c.1 3.8-1.3 7.6-.7 11.8 1.3 10 16.2 10.7 25.7 9.4 21.4-2.8 35.2-20.9 32.9-38.2-2.3-17.3-15.3-21.7-20.7-23.7l-26.4-10.9a93 93 0 0 1-28-19.2c-8.6-8.8-16-20.5-17.9-35.5-1.7-12.5.1-27.3 6.9-39.7a87.3 87.3 0 0 1 8.4-12.7c.8-1.1 1.7-2.1 2.6-3.2 13.6-15.8 31.4-24.5 51.1-27.4 17.9-2.7 32.8-.1 46.7 3.9l3.6 1.1 3.8 1.2c6.9 3.5 6.2 13.1 0 14.4l-7.4-2.3c-12.6-3.6-25.6-5.8-41.1-3.3-20.4 3.4-29.6 12.7-32.9 26.1-3.8 15.8 6.2 29.6 19.2 34.5l22.1 9.5c13.3 6 24.2 12 32.7 19a55.3 55.3 0 0 1 18.5 28.9c5.7 21.3-1.3 45.1-18.5 63.2z" transform="translate(.93125) scale(.0625)"/>
  <path fill="url(#d)" d="M510.9 255.5a255.2 255.2 0 0 1-89 196.2A261.7 261.7 0 0 1 290.5 512c35.5-20.1 55.3-52.8 55.3-80.3 0-44.2-26.8-38.8-34.6-32.3v-44.1c17.2-18.1 24.2-41.9 18.5-63.2a55.3 55.3 0 0 0-18.5-28.9v-85.8l7.4 2.3c6.2-1.3 6.9-10.9 0-14.4l-3.8-1.2-3.6-1.1v-18.8a45.3 45.3 0 0 0-5.3-9 38.3 38.3 0 0 0-31-15.6c-26.7 0-61.5 30.5-61.5 30.5v36.4c-.9 1.1-1.8 2.1-2.6 3.2a87.3 87.3 0 0 0-8.4 12.7c-6.8 12.4-8.6 27.2-6.9 39.7 1.9 15 9.3 26.7 17.9 35.5v41.8a19.3 19.3 0 0 0-9.9-1.2c-12.7 1.6-22.9 9.6-20.8 26 1.8 13.2 13.1 30.2 36.6 36.8 6.1 13.3 16 25.2 26 30.7 0 0-29.5 5.2-52.3-12.1a190.7 190.7 0 0 1-13.6 14.8c-53.2 51.9-103.2 66.7-144.9 74.1 0 0 75.8-59.3 75.8-138.8 0-59.1-1.5-203.3-1.5-203.3-28.2-27-69.9 11.9-107.7 50.4 7.3-35 39.7-124.6 143-173.2l41.5 46.5 70-70.1a259 259 0 0 1 198 96c5.8 1.4 26.1 3.6 55.4-24.3 0 0-25 100.7-95.7 107.5v133a31.1 31.1 0 0 0 30.3 32.2 27.4 27.4 0 0 0 9-1c32.4-7.4 58.3-87.9 58.3-87.9z" transform="translate(.93125) scale(.0625)"/>
</svg>
