<svg xmlns="http://www.w3.org/2000/svg" xmlns:xlink="http://www.w3.org/1999/xlink" xml:space="preserve" viewBox="0 0 170.00001 32">
  <defs>
    <linearGradient id="a" x1="210.64" x2="314.54001" y1="153.41" y2="153.41" gradientUnits="userSpaceOnUse">
      <stop offset="0" stop-color="#4cbbeb"/>
      <stop offset="1" stop-color="#162f48"/>
    </linearGradient>
    <linearGradient xlink:href="#a" id="c" x1="182.42999" x2="331.62" y1="270.85999" y2="270.85999"/>
    <linearGradient id="d" x1="1.0700001" x2="510.92999" y1="256" y2="256" gradientUnits="userSpaceOnUse">
      <stop offset="0" stop-color="#10182b"/>
      <stop offset="1" stop-color="#4cbbeb"/>
    </linearGradient>
    <linearGradient xlink:href="#a" id="b" x1="210.64" x2="314.54001" y1="153.41" y2="153.41" gradientUnits="userSpaceOnUse"/>
  </defs>
  <path d="M94.234375 1v29.474609h4.359375V1Zm-7.228516.6855469c-1.537453.00292-2.782256 1.2496563-2.785156 2.7871093 0 1.4939433 1.250837 2.7851563 2.785156 2.7851563 1.534319 0 2.78711-1.291213 2.78711-2.7851563-.0029-1.5374551-1.249655-2.7841893-2.78711-2.7871093zm64.763671 4.3203125c-.99125 0-1.79492.8036792-1.79492 1.7949218 0 .991244.80367 1.7949219 1.79492 1.7949219h12.30469l-1.09961 4.5957029c-.0998-.0165-.19988-.03125-.30469-.03125h-15.40625c-.99124 0-1.79297.803678-1.79297 1.794922 0 .99196.80173 1.792969 1.79297 1.792969h14.85742l-.99804 4.167969-7.96875 5.160156-8.22071-5.277344c-.8319-.536893-1.94449-.294987-2.47851.539063-.53546.834051-.29498 1.94501.53906 2.480468l9.19727 5.904297c.29503.191647.63139.283203.96875.283203.34021 0 .67942-.0969.97656-.287109l9.54101-6.179688c.38617-.252656.66332-.642671.76954-1.089843l3.64648-15.2324221c.12777-.5333053.003-1.0959655-.33594-1.5273438-.34022-.4320986-.85838-.6835937-1.4082-.6835937zM48.59375 9.7617188c-2.745625 0-4.927328 1.0097792-6.259766 3.1093752v-2.583985h-4.359375v20.1875h4.359375V19.654297c0-4.118438 2.262151-5.814453 5.128907-5.814453 2.745629 0 4.521484 1.614953 4.521484 4.683594v11.951171h4.361328V18.080078c0-5.24899-3.229744-8.3183592-7.751953-8.3183592zm19.71875 0c-5.49125 0-10.054687 4.6029902-10.054688 10.6191402C58.257812 26.356632 62.82125 31 68.3125 31c3.149395 0 5.532083-1.291667 7.066406-3.431641v2.90625h4.359375V10.285156h-4.359375v2.869141C73.844583 11.0547 71.461895 9.7617187 68.3125 9.7617188Zm33.53711 0V22.158203c0 5.24899 3.2317 8.316406 7.75391 8.316406 2.74562 0 4.92537-1.009778 6.25781-3.109375v2.585938h4.35937V9.7617188h-4.35937V20.582031c0 4.118439-2.26216 5.814453-5.12891 5.814453-2.74563 0-4.52148-1.614953-4.52148-4.683593V9.7617188Zm29.75977 0c-4.11845 0-7.38868 2.3823102-7.38868 6.1777342 0 7.227456 10.86133 5.209194 10.86133 8.802735 0 1.615073-1.49356 2.259765-3.43164 2.259765-2.22074 0-3.83638-1.089292-4.48242-2.90625l-3.75391 2.179688C124.70612 29.182524 127.61269 31 131.65039 31c4.36069 0 7.87305-2.181066 7.87305-6.21875 0-7.469719-10.86133-5.247582-10.86133-8.921875 0-1.453566 1.37256-2.140625 2.94727-2.140625 1.65544 0 3.07008.726085 3.79687 2.300781l3.67383-2.058593c-1.41318-2.664871-4.15981-4.1992192-7.4707-4.1992192zm-46.783208.5253902v20.1875H89.1875v-20.1875zm-15.828125 3.632813c3.633917 0 6.380859 2.70589 6.380859 6.460937 0 3.755047-2.746942 6.458985-6.380859 6.458985s-6.380859-2.703938-6.380859-6.458985c0-3.755046 2.746942-6.460937 6.380859-6.460937z"/>
  <path fill="url(#b)" d="M210.6 190.5v-40s73.3-72.1 103.9-7v21s-59.6-22.4-103.9 26z" transform="translate(.93125) scale(.0625)"/>
  <path fill="url(#c)" d="M311.2 355.3c-13.2 13.9-32.5 24.3-56.8 27.5-13.9 1.8-25.5.8-35.1-1.8-23.5-6.6-34.8-23.6-36.6-36.8-2.1-16.4 8.1-24.4 20.8-26a19.3 19.3 0 0 1 9.9 1.2c9 3.4 15.6 12.7 16.8 22.2a36.1 36.1 0 0 1 .4 6.8c.1 3.8-1.3 7.6-.7 11.8 1.3 10 16.2 10.7 25.7 9.4 21.4-2.8 35.2-20.9 32.9-38.2-2.3-17.3-15.3-21.7-20.7-23.7l-26.4-10.9a93 93 0 0 1-28-19.2c-8.6-8.8-16-20.5-17.9-35.5-1.7-12.5.1-27.3 6.9-39.7a87.3 87.3 0 0 1 8.4-12.7c.8-1.1 1.7-2.1 2.6-3.2 13.6-15.8 31.4-24.5 51.1-27.4 17.9-2.7 32.8-.1 46.7 3.9l3.6 1.1 3.8 1.2c6.9 3.5 6.2 13.1 0 14.4l-7.4-2.3c-12.6-3.6-25.6-5.8-41.1-3.3-20.4 3.4-29.6 12.7-32.9 26.1-3.8 15.8 6.2 29.6 19.2 34.5l22.1 9.5c13.3 6 24.2 12 32.7 19a55.3 55.3 0 0 1 18.5 28.9c5.7 21.3-1.3 45.1-18.5 63.2z" transform="translate(.93125) scale(.0625)"/>
  <path fill="url(#d)" d="M510.9 255.5a255.2 255.2 0 0 1-89 196.2A261.7 261.7 0 0 1 290.5 512c35.5-20.1 55.3-52.8 55.3-80.3 0-44.2-26.8-38.8-34.6-32.3v-44.1c17.2-18.1 24.2-41.9 18.5-63.2a55.3 55.3 0 0 0-18.5-28.9v-85.8l7.4 2.3c6.2-1.3 6.9-10.9 0-14.4l-3.8-1.2-3.6-1.1v-18.8a45.3 45.3 0 0 0-5.3-9 38.3 38.3 0 0 0-31-15.6c-26.7 0-61.5 30.5-61.5 30.5v36.4c-.9 1.1-1.8 2.1-2.6 3.2a87.3 87.3 0 0 0-8.4 12.7c-6.8 12.4-8.6 27.2-6.9 39.7 1.9 15 9.3 26.7 17.9 35.5v41.8a19.3 19.3 0 0 0-9.9-1.2c-12.7 1.6-22.9 9.6-20.8 26 1.8 13.2 13.1 30.2 36.6 36.8 6.1 13.3 16 25.2 26 30.7 0 0-29.5 5.2-52.3-12.1a190.7 190.7 0 0 1-13.6 14.8c-53.2 51.9-103.2 66.7-144.9 74.1 0 0 75.8-59.3 75.8-138.8 0-59.1-1.5-203.3-1.5-203.3-28.2-27-69.9 11.9-107.7 50.4 7.3-35 39.7-124.6 143-173.2l41.5 46.5 70-70.1a259 259 0 0 1 198 96c5.8 1.4 26.1 3.6 55.4-24.3 0 0-25 100.7-95.7 107.5v133a31.1 31.1 0 0 0 30.3 32.2 27.4 27.4 0 0 0 9-1c32.4-7.4 58.3-87.9 58.3-87.9z" transform="translate(.93125) scale(.0625)"/>
</svg>
